<svg id="Calque_2" data-name="Calque 2" xmlns="http://www.w3.org/2000/svg" xmlns:xlink="http://www.w3.org/1999/xlink" viewBox="0 0 164.02 46.86"><defs><style>.cls-1{fill:#fff;}.cls-2{fill:url(#linear-gradient);}.cls-3{fill:url(#linear-gradient-2);}.cls-4{fill:url(#linear-gradient-3);}.cls-5{fill:url(#linear-gradient-4);}</style><linearGradient id="linear-gradient" x1="57.66" y1="54.19" x2="27.18" y2="23.71" gradientUnits="userSpaceOnUse"><stop offset="0" stop-color="#e5007e"/><stop offset="0.11" stop-color="#e5016f"/><stop offset="0.52" stop-color="#e3043d"/><stop offset="0.83" stop-color="#e2051f"/><stop offset="1" stop-color="#e20613"/></linearGradient><linearGradient id="linear-gradient-2" x1="55" y1="19.03" x2="24.52" y2="49.51" gradientUnits="userSpaceOnUse"><stop offset="0" stop-color="#ffec00"/><stop offset="1" stop-color="#eb6608"/></linearGradient><linearGradient id="linear-gradient-3" x1="31.85" y1="51.54" x2="62.33" y2="21.06" gradientUnits="userSpaceOnUse"><stop offset="0" stop-color="#702382"/><stop offset="1" stop-color="#009ee2"/></linearGradient><linearGradient id="linear-gradient-4" x1="29.2" y1="16.38" x2="59.68" y2="46.86" gradientUnits="userSpaceOnUse"><stop offset="0" stop-color="#c7d300"/><stop offset="1" stop-color="#007a67"/></linearGradient></defs><title>logo</title><path class="cls-1" d="M92.1,41.36a12.62,12.62,0,0,1-7,1.84c-5.81,0-10.46-3.5-10.46-7.86s4.65-7.86,10.46-7.86a12.63,12.63,0,0,1,7,1.86v2.05a12.41,12.41,0,0,0-6.84-2.07c-4.54,0-8.17,2.65-8.17,6s3.63,6,8.17,6a12.29,12.29,0,0,0,6.84-2Z" transform="translate(-20 -11.86)"/><path class="cls-1" d="M107.13,42.57l-3.66-5.93H96.86v5.93h-2.3V28H104c3.35,0,5.41,1.88,5.41,4.34,0,2-1.41,3.47-3.58,4.05l3.9,6.19ZM96.86,29.85v4.94h6.66c2.28,0,3.53-.89,3.53-2.46s-1.25-2.48-3.53-2.48Z" transform="translate(-20 -11.86)"/><path class="cls-1" d="M111.64,42.57V28h14.69v1.86H113.94V34.1h10.3v1.83H113.91v4.81h12.42v1.83Z" transform="translate(-20 -11.86)"/><path class="cls-1" d="M148.69,42.57V28H158c5,0,9.23,2.64,9.23,7.29S163,42.57,158,42.57Zm9.1-1.83c4.07,0,7.05-1.86,7.05-5.46s-3-5.43-7.05-5.43H151V40.74Z" transform="translate(-20 -11.86)"/><path class="cls-1" d="M182.3,30.42a15,15,0,0,0-5.83-1.1c-2.35,0-5.28.53-5.28,2.22,0,3.61,12.83,1.05,12.83,7.16,0,3.77-4.5,4.4-8.07,4.4a16.82,16.82,0,0,1-7.32-1.5V39.72a18,18,0,0,0,7.26,1.54c2.25,0,5.86-.65,5.86-2.45,0-4-12.86-1.18-12.86-7.19,0-3.08,3.71-4.13,7.58-4.13a14.49,14.49,0,0,1,5.85,1.1Z" transform="translate(-20 -11.86)"/><path class="cls-1" d="M137.47,27.47l-9.73,15.1h2.65l2-3.13.42-.68h9.37l2.4,3.81h2.67ZM133.9,36.9h0l.64-1h0l2.94-4.68,3.58,5.7Z" transform="translate(-20 -11.86)"/><path class="cls-2" d="M59.5,51.36a21.18,21.18,0,0,1-13.88,5.16c-.74,0-1.47,0-2.19-.11a21.24,21.24,0,0,1-19-21.12,19,19,0,0,1,19-19,21.22,21.22,0,0,0-21.12,19,19.83,19.83,0,0,0-.11,2.19A21.23,21.23,0,0,0,42.88,58.71H44A23.43,23.43,0,0,0,66.85,35.84,21.19,21.19,0,0,1,59.5,51.36Z" transform="translate(-20 -11.86)"/><path class="cls-3" d="M57.3,21.41a21.11,21.11,0,0,0-13.87-7.24,20.13,20.13,0,0,0-2.2-.12A21.25,21.25,0,0,0,20,34.74v1.1A23.43,23.43,0,0,0,42.88,58.71,21.23,21.23,0,0,1,22.2,37.48a19.83,19.83,0,0,1,.11-2.19,21.22,21.22,0,0,1,21.12-19,19,19,0,0,1,19,18.54A21.15,21.15,0,0,0,57.3,21.41Z" transform="translate(-20 -11.86)"/><path class="cls-4" d="M44,11.87A21.23,21.23,0,0,1,64.66,33.09c0,.74,0,1.47-.11,2.2a21.24,21.24,0,0,1-21.12,19,19,19,0,0,1-19-19,21.24,21.24,0,0,0,19,21.12c.72.07,1.45.11,2.19.11A21.23,21.23,0,0,0,66.85,35.84c0-.19,0-.37,0-.55A23.42,23.42,0,0,0,44,11.87Z" transform="translate(-20 -11.86)"/><path class="cls-5" d="M59.5,19.22A21.14,21.14,0,0,0,44,11.87h-1.1A23.42,23.42,0,0,0,20,34.74,21.25,21.25,0,0,1,41.23,14.05a20.13,20.13,0,0,1,2.2.12,21.24,21.24,0,0,1,19,20.62v.5a19,19,0,0,1-19,19,21.24,21.24,0,0,0,21.12-19c.07-.73.11-1.46.11-2.2A21.08,21.08,0,0,0,59.5,19.22Z" transform="translate(-20 -11.86)"/><path class="cls-1" d="M51.18,41.25a12.51,12.51,0,0,1-6.92,1.83c-5.76,0-10.38-3.48-10.38-7.8s4.62-7.8,10.38-7.8a12.52,12.52,0,0,1,6.92,1.85v2A12.22,12.22,0,0,0,44.4,29.3c-4.51,0-8.11,2.64-8.11,6s3.6,6,8.11,6a12.21,12.21,0,0,0,6.78-2Z" transform="translate(-20 -11.86)"/></svg>